{"accessors":[{"bufferView":3,"componentType":5126,"count":1272,"max":[140.09799194335938,191.51699829101562,154.55001831054688],"min":[-140.09800720214844,95.73030090332031,-125.6500015258789],"type":"VEC3"},{"bufferView":3,"byteOffset":15264,"componentType":5126,"count":1272,"max":[0.9999995231628418,1,0.9999995231628418],"min":[-0.9999995231628418,-0.9998831748962402,-0.9999995231628418],"type":"VEC3"},{"bufferView":2,"componentType":5126,"count":1272,"max":[0.9953299760818481,0.9946500062942505],"min":[0.005621999967843294,0.004170000087469816],"type":"VEC2"},{"bufferView":1,"componentType":5125,"count":5664,"type":"SCALAR"},{"bufferView":3,"byteOffset":30528,"componentType":5126,"count":70,"max":[45.54890060424805,91.03369903564453,127.9639892578125],"min":[-45.54890060424805,59.08570098876953,104.29299926757812],"type":"VEC3"},{"bufferView":3,"byteOffset":31368,"componentType":5126,"count":70,"max":[0.8333190083503723,0.7215747237205505,0.9171227812767029],"min":[-0.8333190083503723,-0.0502939373254776,0.4262761175632477],"type":"VEC3"},{"bufferView":2,"byteOffset":10176,"componentType":5126,"count":70,"max":[0.48921999335289,2.986829996109009],"min":[0.0107810003682971,2.7709898948669434],"type":"VEC2"},{"bufferView":1,"byteOffset":22656,"componentType":5125,"count":336,"type":"SCALAR"},{"bufferView":3,"byteOffset":32208,"componentType":5126,"count":2317,"max":[107.11699676513672,109.05500030517578,139.18600463867188],"min":[-107.11698913574219,-0.009800000116229057,-93.02690124511719],"type":"VEC3"},{"bufferView":3,"byteOffset":60012,"componentType":5126,"count":2317,"max":[0.9997943043708801,0.9997756481170654,0.9999403357505798],"min":[-0.9997943639755249,-1,-0.9996533989906311],"type":"VEC3"},{"bufferView":2,"byteOffset":10736,"componentType":5126,"count":2317,"max":[1,0.9891219735145569],"min":[0,0.007813000120222569],"type":"VEC2"},{"bufferView":1,"byteOffset":24000,"componentType":5125,"count":9990,"type":"SCALAR"},{"bufferView":3,"byteOffset":87816,"componentType":5126,"count":696,"max":[96.9745101928711,166.2620086669922,107.56999206542969],"min":[-96.9745101928711,135.76400756835938,-78.67040252685547],"type":"VEC3"},{"bufferView":3,"byteOffset":96168,"componentType":5126,"count":696,"max":[0.957731306552887,0.9993109107017517,0.9877352118492126],"min":[-0.9577313661575317,-0.9999679923057556,-0.9877351522445679],"type":"VEC3"},{"bufferView":2,"byteOffset":29272,"componentType":5126,"count":696,"max":[0.9905369877815247,1.9959299564361572],"min":[0.009046000428497791,1.0040700435638428],"type":"VEC2"},{"bufferView":1,"byteOffset":63960,"componentType":5125,"count":3168,"type":"SCALAR"},{"bufferView":5,"componentType":5126,"count":92,"max":[1,1,0.8616040945053101,0,1,1,1.0000003576278687,0,1,1,1,0,60.0807991027832,88.67635345458984,172.16970825195312,1],"min":[-0.9991296529769897,-1,-0.8616063594818115,0,-0.9395743012428284,-0.7488006949424744,-1,0,-1,-1,-0.4467720091342926,0,-125.69012451171875,-88.73410034179688,-102.82923889160156,1],"type":"MAT4"},{"bufferView":0,"componentType":5123,"count":1272,"type":"VEC4"},{"bufferView":4,"componentType":5126,"count":1272,"max":[1,0.47999998927116394,0.12999999523162842,0],"min":[0.5199999809265137,0,0,0],"type":"VEC4"},{"bufferView":0,"byteOffset":10176,"componentType":5123,"count":70,"type":"VEC4"},{"bufferView":4,"byteOffset":20352,"componentType":5126,"count":70,"max":[1,0,0,0],"min":[1,0,0,0],"type":"VEC4"},{"bufferView":0,"byteOffset":10736,"componentType":5123,"count":2317,"type":"VEC4"},{"bufferView":4,"byteOffset":21472,"componentType":5126,"count":2317,"max":[1,0.5,0.3199999928474426,0.1899999976158142],"min":[0.3100000023841858,0,0,0],"type":"VEC4"},{"bufferView":0,"byteOffset":29272,"componentType":5123,"count":696,"type":"VEC4"},{"bufferView":4,"byteOffset":58544,"componentType":5126,"count":696,"max":[1,0.4699999988079071,0.029999999329447746,0],"min":[0.5,0,0,0],"type":"VEC4"}],"asset":{"extras":{"author":"Neut2000 (https://sketchfab.com/Neut2000)","license":"CC-BY-4.0 (http://creativecommons.org/licenses/by/4.0/)","source":"https://sketchfab.com/3d-models/venusaur-67086e2e198a4d1992c51db2e971c46b","title":"Venusaur"},"generator":"Sketchfab-12.67.0","version":"2.0"},"bufferViews":[{"buffer":0,"byteLength":34840,"byteStride":8,"name":"shortBufferViews","target":34962},{"buffer":0,"byteLength":76632,"byteOffset":34840,"name":"floatBufferViews","target":34963},{"buffer":0,"byteLength":34840,"byteOffset":111472,"byteStride":8,"name":"floatBufferViews","target":34962},{"buffer":0,"byteLength":104520,"byteOffset":146312,"byteStride":12,"name":"floatBufferViews","target":34962},{"buffer":0,"byteLength":69680,"byteOffset":250832,"byteStride":16,"name":"floatBufferViews","target":34962},{"buffer":0,"byteLength":5888,"byteOffset":320512,"name":"floatBufferViews"}],"buffers":[{"byteLength":326400,"uri":"data:application/octet-stream;base64,"}],"images":[{"uri":"data:application/octet-stream;base64,"},{"uri":"data:application/octet-stream;base64,"},{"uri":"data:application/octet-stream;base64,"},{"uri":"data:application/octet-stream;base64,"}],"materials":[{"doubleSided":true,"name":"Material_63","pbrMetallicRoughness":{"baseColorTexture":{"index":0},"metallicFactor":0,"roughnessFactor":0.8929713596497552}},{"doubleSided":true,"name":"Material_61","pbrMetallicRoughness":{"baseColorTexture":{"index":1},"metallicFactor":0,"roughnessFactor":0.8929713596497552}},{"doubleSided":true,"name":"Material_62","pbrMetallicRoughness":{"baseColorTexture":{"index":2},"metallicFactor":0,"roughnessFactor":0.8929713596497552}},{"doubleSided":true,"name":"Material_60","pbrMetallicRoughness":{"baseColorTexture":{"index":3},"metallicFactor":0,"roughnessFactor":0.8929713596497552}}],"meshes":[{"name":"VenusaurF_Material #63_0","primitives":[{"attributes":{"JOINTS_0":17,"NORMAL":1,"POSITION":0,"TEXCOORD_0":2,"WEIGHTS_0":18},"indices":3,"material":0,"mode":4}]},{"name":"VenusaurF_Material #61_0","primitives":[{"attributes":{"JOINTS_0":19,"NORMAL":5,"POSITION":4,"TEXCOORD_0":6,"WEIGHTS_0":20},"indices":7,"material":1,"mode":4}]},{"name":"VenusaurF_Material #62_0","primitives":[{"attributes":{"JOINTS_0":21,"NORMAL":9,"POSITION":8,"TEXCOORD_0":10,"WEIGHTS_0":22},"indices":11,"material":2,"mode":4}]},{"name":"VenusaurF_Material #60_0","primitives":[{"attributes":{"JOINTS_0":23,"NORMAL":13,"POSITION":12,"TEXCOORD_0":14,"WEIGHTS_0":24},"indices":15,"material":3,"mode":4}]}],"nodes":[{"children":[1],"matrix":[1,0,0,0,0,2.220446049250313e-16,-1,0,0,1,2.220446049250313e-16,0,0,0,0,1],"name":"Sketchfab_model"},{"children":[2],"matrix":[1,0,0,0,0,0,1,0,0,-1,0,0,0,0,0,1],"name":"VenusaurF.FBX"},{"children":[3],"name":"RootNode"},{"children":[4,6,7,8,9,5],"name":"Object_3"},{"children":[10],"name":"_rootJoint"},{"matrix":[1,2.1690145010534113e-33,-1.3234889800848443e-23,0,-1.3234889800848443e-23,6.123233995736766e-17,-1,0,-2.1690136906501395e-33,1,6.123233995736766e-17,0,-2.710505431213761e-20,0,-1.7763568394002505e-15,1],"name":"Object_5"},{"mesh":0,"name":"Object_6","skin":0},{"mesh":1,"name":"Object_7","skin":0},{"mesh":2,"name":"Object_8","skin":0},{"mesh":3,"name":"Object_9","skin":0},{"children":[11,94,96,98,99,100],"name":"pm0003_00_fushigibana_00","rotation":[-1.5695823663008923e-7,0,0,1]},{"children":[12],"name":"Origin_02"},{"children":[13,27],"name":"Waist_03","rotation":[0.47200945019721985,-0.4720079004764557,0.5265061855316162,0.526504397392273],"translation":[0,60.84370040893555,-23.954999923706055]},{"children":[14,15,21],"name":"Hips_04","rotation":[-0.05449392646551132,-0.0011904226848855615,0.998513400554657,-0.00006682275125058368],"scale":[0.9999998807907104,1,0.9999997019767761]},{"name":"EndHips_01","rotation":[-1.1641532182693481e-10,-2.2737367544323206e-13,1.234568003383174e-13,1],"translation":[76.50305938720703,-0.0000050067901611328125,0.000011444091796875]},{"children":[16],"name":"LThigh_05","rotation":[0.33757853507995605,0.9400086402893066,-0.009453151375055313,0.048323165625333786],"scale":[1.0000001192092896,1.0000001192092896,0.9999998807907104],"translation":[45.756431579589844,58.13990020751953,15.592403411865234]},{"children":[17],"name":"LLeg_06","rotation":[-4.3333994881322724e-7,0.8831263184547424,-4.468375323085638e-7,0.4691352844238281],"scale":[1,1,1.0000001192092896],"translation":[48.45989990234375,0,0]},{"children":[18,19],"name":"LFoot_07","rotation":[0.00223119230940938,-0.8588387370109558,0.006248054094612598,0.5122030377388],"scale":[0.9999998807907104,1.0000001192092896,1],"translation":[45.929622650146484,-0.0000152587890625,0.000001430511474609375]},{"name":"EndLFoot_08","rotation":[1.1368682416908887e-13,4.8707003640343506e-21,4.470578574000683e-8,1],"scale":[1.0000001192092896,1.0000001192092896,1.000000238418579],"translation":[30.095415115356445,0.00000762939453125,-0.000003814697265625]},{"children":[20],"name":"LToe_09","rotation":[1.1368682416908887e-13,4.8707003640343506e-21,4.470578574000683e-8,1],"scale":[1.0000001192092896,1.0000001192092896,1.000000238418579],"translation":[14.499610900878906,0,-5.252335071563721]},{"name":"EndLToe_010","rotation":[-1.6939347290281678e-21,-5.684341886080802e-14,-2.980001490016093e-8,1],"translation":[17.65230941772461,-0.00000762939453125,-9.5367431640625e-7]},{"children":[22],"name":"RThigh_011","rotation":[-0.3374606966972351,0.9399840235710144,0.011689530685544014,0.04912876710295677],"scale":[1.0000001192092896,0.9999998211860657,0.9999998807907104],"translation":[45.756431579589844,-58.13990783691406,15.592391967773438]},{"children":[23],"name":"RLeg_012","rotation":[6.975537871767301e-7,0.8831278681755066,6.919296424712229e-7,0.46913260221481323],"translation":[48.459922790527344,-0.0000152587890625,0.0000457763671875]},{"children":[24,25],"name":"RFoot_013","rotation":[-0.0022347155027091503,-0.8588363528251648,-0.006245076190680265,0.5122073292732239],"scale":[0.9999998807907104,1.000000238418579,1.0000001192092896],"translation":[45.929603576660156,-0.00009918212890625,0.0003261566162109375]},{"name":"EndRFoot_014","rotation":[-2.2737367544323206e-12,-1.8189894035458565e-12,-1.487633349839257e-10,1],"scale":[1,1,0.9999998807907104],"translation":[30.09541130065918,-0.00000762939453125,-9.5367431640625e-7]},{"children":[26],"name":"RToe_016","rotation":[-2.2737367544323206e-12,-1.8189894035458565e-12,-1.487633349839257e-10,1],"scale":[1,1,0.9999998807907104],"translation":[14.499702453613281,-0.00002288818359375,-5.252240180969238]},{"name":"EndRToe_017","rotation":[-0.0000019073504518019035,-9.092107492239543e-13,-1.4876330722835007e-10,1],"scale":[1.000000238418579,1.000000238418579,1],"translation":[17.652297973632812,0.00000762939453125,0]},{"children":[28,65],"name":"Spine1_018","rotation":[1.1166938269465874e-22,1.5869175529762916e-36,1.4210856409267898e-14,1],"scale":[0.9999998807907104,1,0.9999998807907104]},{"children":[29,49,53,57,61],"name":"FeelerA1_019","rotation":[1.5413635878758214e-7,0.6675218343734741,1.5413749565595936e-7,0.7445902228355408],"scale":[1.0000001192092896,1,1.0000001192092896],"translation":[42.252906799316406,9.999930625781417e-7,-33.0496940612793]},{"children":[30,31,34,37,40,43,46],"name":"FeelerA2_020","rotation":[1.4688771032833614e-15,-2.117582368135751e-22,-2.3235298428996935e-24,1],"translation":[27.39459991455078,-5.421010862427522e-20,0.0000057220458984375]},{"name":"EndFeelerA2_021","rotation":[1.4688771032833614e-15,-7.055922284174065e-38,-4.803616389960825e-23,1],"translation":[52.751678466796875,-0.0000069999368861317635,9.5367431640625e-7]},{"children":[32],"name":"LFeelerB1_022","rotation":[-0.4593040645122528,0.537625789642334,0.5376237630844116,-0.45930275321006775],"translation":[38.76338195800781,-14.58580493927002,0.05039501190185547]},{"children":[33],"name":"LFeelerB2_023","rotation":[-1.1668857171482066e-14,-0.19039741158485413,-6.016573280169177e-14,0.9817070960998535],"scale":[1.0000001192092896,1,1.0000001192092896],"translation":[44.986419677734375,-0.000003814697265625,0.0000457763671875]},{"name":"EndLFeelerB2_024","rotation":[-5.684341886080802e-14,-2.722218970432002e-17,-2.842170943040401e-14,1],"translation":[45.787113189697266,9.5367431640625e-7,-2.842170943040401e-14]},{"children":[35],"name":"LFeelerC1_025","rotation":[0.1649387776851654,-0.7428971529006958,-0.19836829602718353,0.6176965832710266],"scale":[1,0.9999999403953552,0.9999999403953552],"translation":[39.51820373535156,-8.157273292541504,14.040600776672363]},{"children":[36],"name":"LFeelerC2_026","rotation":[0.00027328645228408277,-0.17800797522068024,-0.0015120774041861296,0.9840278625488281],"scale":[1.000000238418579,1.000000238418579,1.0000003576278687],"translation":[45.00682067871094,-0.000015735626220703125,0.000030517578125]},{"name":"EndLFeelerC2_027","rotation":[-1.9615983504195356e-8,2.980232594040899e-8,4.656613761255812e-9,1],"scale":[0.9999998807907104,0.9999998807907104,0.9999998807907104],"translation":[45.61579895019531,0.0000057220458984375,2.842170943040401e-14]},{"children":[38],"name":"LFeelerD1_028","rotation":[-0.6232325434684753,0.1991812288761139,0.737263560295105,-0.1683759093284607],"scale":[1.000000238418579,1,0.9999998211860657],"translation":[39.56358337402344,-8.123212814331055,-13.89229965209961]},{"children":[39],"name":"LFeelerD2_029","rotation":[0.0002649184316396713,-0.1768554002046585,-0.001475452445447445,0.9842357039451599],"scale":[0.9999999403953552,1.0000003576278687,1.0000001192092896],"translation":[44.74162673950195,0.000012874603271484375,0.0000152587890625]},{"name":"EndLFeelerD2_030","rotation":[-7.741617125134326e-9,1.4901157641133977e-8,2.584419611650901e-8,1],"scale":[1.000000238418579,1.000000238418579,1],"translation":[45.67859649658203,0.00000667572021484375,0.000030517578125]},{"children":[41],"name":"RFeelerB1_031","rotation":[0.459304541349411,0.5376258492469788,-0.5376236438751221,-0.45930227637290955],"translation":[38.76368713378906,14.585795402526855,0.0504150390625]},{"children":[42],"name":"RFeelerB2_015","rotation":[1.0866263130179105e-13,-0.19039738178253174,-3.682801676466174e-14,0.9817070960998535],"scale":[1.000000238418579,1,1.000000238418579],"translation":[44.98652648925781,0.0000019073486328125,0.0006866455078125]},{"name":"EndRFeelerB2_033","rotation":[1.7053025658242404e-13,1.4901161193847656e-8,-1.1368683772161603e-13,1],"translation":[45.7868766784668,-0.0000019073486328125,0.0000457763671875]},{"children":[44],"name":"RFeelerC1_034","rotation":[-0.16493871808052063,-0.7428972125053406,0.19836831092834473,0.6176965236663818],"scale":[1.000000238418579,1,0.9999998807907104],"translation":[39.5177001953125,8.157265663146973,14.040596961975098]},{"children":[45],"name":"RFeelerC2_035","rotation":[-0.00027339524240233004,-0.17800796031951904,0.0015120094176381826,0.9840278625488281],"scale":[1.0000001192092896,1.000000238418579,1.000000238418579],"translation":[45.00669860839844,-0.00002384185791015625,-0.00054931640625]},{"name":"EndRFeelerC2_036","rotation":[9.837094694375992e-9,1.4901161193847656e-8,-2.1827875062996327e-9,1],"translation":[45.615806579589844,0.000008106231689453125,0.0000152587890625]},{"children":[47],"name":"RFeelerD1_037","rotation":[-0.6232324838638306,-0.19918124377727509,0.7372636198997498,0.16837595403194427],"translation":[39.563690185546875,8.123205184936523,-13.892300605773926]},{"children":[48],"name":"RFeelerD2_038","rotation":[-0.00026538260863162577,-0.17685538530349731,0.0014752688584849238,0.9842358231544495],"scale":[1.000000238418579,1.000000238418579,1.0000003576278687],"translation":[44.74164581298828,-0.000001430511474609375,0.00030517578125]},{"name":"EndRFeelerD2_039","rotation":[2.677552179974896e-9,-1.4901162970204496e-8,-1.0826625818083357e-8,1],"scale":[0.9999998807907104,1,0.9999998807907104],"translation":[45.67839431762695,0.000005245208740234375,0.0000152587890625]},{"children":[50],"name":"FeelerB1_040","rotation":[0.7924780249595642,7.731046025583055e-7,-0.6099004745483398,0.0000010045381486634142],"translation":[12.068397521972656,9.999785106629133e-7,-10.90250015258789]},{"children":[51],"name":"FeelerB2_041","rotation":[1.6544261290056387e-15,-0.05782071873545647,2.8565162930350996e-14,0.9983270764350891],"translation":[31.107807159423828,9.998911991715431e-7,0]},{"children":[52],"name":"FeelerB3_042","rotation":[0.0000014947571571610752,-0.08354262262582779,1.25313974308483e-7,0.9965043067932129],"scale":[1.0000001192092896,1,1.0000001192092896],"translation":[46.84282684326172,0.0000019999570213258266,-2.842170943040401e-14]},{"name":"EndFeelerB3_043","rotation":[2.2737367544323206e-13,1.734723475976807e-18,-3.552713678800501e-14,1],"translation":[48.46910095214844,-0.0000030000810511410236,0]},{"children":[54],"name":"FeelerC1_044","rotation":[-2.896124158269231e-7,-0.6073614358901978,-3.7881159187236335e-7,0.7944256663322449],"translation":[11.494300842285156,-0.00000100000761449337,12.388903617858887]},{"children":[55],"name":"FeelerC2_045","rotation":[4.991591708858323e-7,-0.057961635291576385,2.8980842614600988e-8,0.9983189105987549],"translation":[31.077903747558594,0.0000010000367183238268,-0.0000152587890625]},{"children":[56],"name":"FeelerC3_046","rotation":[-4.7517130496999016e-7,-0.08351815491914749,-3.9824556097300956e-8,0.9965062737464905],"translation":[46.850486755371094,5.421010862427522e-20,-0.00000762939453125]},{"name":"EndFeelerC3_047","rotation":[-3.3107904017434933e-22,9.31322685637781e-10,1.7763570511584873e-15,1],"scale":[0.9999998807907104,1,0.9999998807907104],"translation":[48.52690887451172,0.00000100000761449337,0]},{"children":[58],"name":"LFeelerA1_048","rotation":[0.5564090609550476,-0.4363609254360199,-0.4363592863082886,0.5564069747924805],"translation":[8.540695190429688,-16.300403594970703,0.037146568298339844]},{"children":[59],"name":"LFeelerA2_049","rotation":[1.2325274883077443e-15,-0.057439401745796204,2.1422447488345965e-14,0.9983490109443665],"translation":[31.19330596923828,-0.00000286102294921875,0.00000762939453125]},{"children":[60],"name":"LFeelerA3_050","rotation":[1.3559830697656506e-15,-0.08363029360771179,1.6157216149313876e-14,0.996496856212616],"scale":[0.9999999403953552,1,0.9999999403953552],"translation":[46.820594787597656,-0.000003814697265625,0]},{"name":"EndLFeelerA3_051","rotation":[-5.451925166698507e-32,2.3608936162103143e-18,2.3092633830005573e-14,1],"scale":[1.000000238418579,1,1.000000238418579],"translation":[48.30419158935547,9.5367431640625e-7,0]},{"children":[62],"name":"RFeelerA1_052","rotation":[-0.5564091205596924,-0.4363609552383423,0.4363591969013214,0.5564069151878357],"translation":[8.540321350097656,16.300395965576172,0.03711509704589844]},{"children":[63],"name":"RFeelerA2_053","rotation":[4.991745186089247e-7,-0.0574394054710865,2.871963289408086e-8,0.9983490109443665],"scale":[1.000000238418579,1,1.000000238418579],"translation":[31.193218231201172,0,0.0000457763671875]},{"children":[64],"name":"RFeelerA3_054","rotation":[1.0546532163623014e-15,-0.0836302861571312,1.2566723954032886e-14,0.996496856212616],"scale":[0.9999998807907104,1,0.9999998807907104],"translation":[46.820701599121094,-0.00000286102294921875,-0.00074005126953125]},{"name":"EndRFeelerA3_055","rotation":[-2.5568947573535364e-32,2.0562909730825623e-18,1.2434497875801753e-14,1],"translation":[48.30438232421875,0,-0.00000762939453125]},{"children":[66,73,87],"name":"Spine2_056","rotation":[-1.9025154088719637e-23,7.450580596923828e-9,-1.4210854715202004e-14,1],"translation":[28.5454044342041,-0.0000040000013541430235,0.00000762939453125]},{"children":[67],"name":"LShoulder_057","rotation":[-0.003622649470344186,-0.08035019785165787,-0.7053458094596863,0.7042855024337769],"scale":[0.9999999403953552,0.9999998807907104,1.0000001192092896],"translation":[12.472904205322266,-34.25739669799805,-15.12600326538086]},{"children":[68],"name":"LArm_058","rotation":[-0.27813929319381714,-0.523278534412384,-0.10708405822515488,0.7983427047729492],"scale":[0.9999998807907104,0.9999999403953552,1.0000001192092896],"translation":[27.661901473999023,-0.0000019073486328125,0.0000152587890625]},{"children":[69],"name":"LForeArm_059","rotation":[1.5743735559681227e-7,-0.2526557445526123,5.955409392299771e-7,0.9675562381744385],"scale":[0.9999997615814209,1.0000001192092896,0.9999999403953552],"translation":[39.24729919433594,-0.00000762939453125,-1.4210854715202004e-14]},{"children":[70,71],"name":"LHand_060","rotation":[-0.3998638987541199,-0.44620415568351746,0.34064367413520813,0.7245499491691589],"scale":[1.0000001192092896,1.0000003576278687,1.0000001192092896],"translation":[31.150901794433594,0.00000762939453125,0.000011444091796875]},{"name":"EndLHand_061","rotation":[-1.1368683772161603e-13,-5.684341886080802e-14,2.052774616956299e-12,1],"scale":[1,1,0.9999998807907104],"translation":[29.065502166748047,0.00002288818359375,-0.00000286102294921875]},{"children":[72],"name":"LFinger1_062","rotation":[-1.1368683772161603e-13,-5.684341886080802e-14,2.052774616956299e-12,1],"scale":[1,1,0.9999998807907104],"translation":[12.572898864746094,0.0000152587890625,-7.176379203796387]},{"name":"EndLFinger1_063","rotation":[3.111365860032642e-22,-5.684341886080802e-14,-1.8605923468584251e-9,1],"translation":[24.35360336303711,0.0000152587890625,-0.00000286102294921875]},{"children":[74],"name":"Neck1_032","rotation":[0.000001498164351687592,-0.04946025460958481,7.419036762712494e-8,0.9987761974334717],"scale":[1.0000001192092896,1,1.0000001192092896],"translation":[26.615703582763672,-0.0000020000006770715117,0.000011444091796875]},{"children":[75],"name":"Neck2_064","rotation":[-2.742620970931622e-22,9.99308895188733e-7,1.323516116899984e-23,1],"scale":[1.000000238418579,1,1.000000238418579],"translation":[19.874608993530273,-9.999203030019999e-7,0]},{"children":[76,77,83,85],"name":"Head_065","rotation":[-0.0000031066151677805465,-0.005042054690420628,-0.000001446121018489066,0.9999873042106628],"scale":[0.9999998211860657,1,0.9999998211860657],"translation":[13.685707092285156,0.0000029999937396496534,0.0000152587890625]},{"name":"EndHead_066","rotation":[-1.189799144755229e-23,-8.470329472543003e-22,-2.0651584825906455e-14,1],"translation":[94.59053039550781,0.000008000017260201275,0.0000152587890625]},{"children":[78,79,81],"name":"Jaw_067","rotation":[0.9527867436408997,8.612850024292129e-7,0.3036402761936188,-0.0000013595639529739856],"translation":[12.221511840820312,0.0000010000367183238268,3.3274383544921875]},{"name":"EndJaw_068","rotation":[7.940933880509066e-23,8.326672684688674e-17,-1.3234889800848443e-22,1],"translation":[73.61151123046875,-0.00000200001522898674,-0.0000152587890625]},{"children":[80],"name":"LJaw_069","rotation":[0.6635359525680542,0.0026176462415605783,0.7480549216270447,0.01127126906067133],"scale":[1,0.9999998211860657,0.9999998807907104],"translation":[46.67329406738281,32.83839797973633,0.9568252563476562]},{"name":"EndLJaw_070","rotation":[1.473858504046164e-17,-1.4901161193847656e-8,9.313225746154785e-10,1],"translation":[8.709671020507812,0.00000762939453125,-0.000030517578125]},{"children":[82],"name":"RJaw_071","rotation":[0.6635475754737854,-0.0026197012048214674,0.7480445504188538,-0.011274049058556557],"scale":[0.9999999403953552,1.0000001192092896,1],"translation":[46.673004150390625,-32.83839797973633,0.9566116333007812]},{"name":"EndRJaw_072","rotation":[-9.313225746154785e-10,-1.4901161193847656e-8,-1.5137643437736822e-17,1],"translation":[8.709671020507812,-0.000003814697265625,0.00002288818359375]},{"children":[84],"name":"LEar_073","rotation":[-0.22834743559360504,0.757807195186615,-0.34125837683677673,0.5070783495903015],"scale":[1.0000001192092896,1,1],"translation":[10.878204345703125,-35.25900650024414,-24.32878875732422]},{"name":"EndLEar_074","rotation":[2.980232594040899e-8,-9.159341011948726e-16,-2.9802322387695312e-8,1],"scale":[1,0.9999998807907104,1],"translation":[31.375614166259766,0.00000762939453125,0.00002288818359375]},{"children":[86],"name":"REar_075","rotation":[0.22834692895412445,0.7578067183494568,0.3412624001502991,0.507076621055603],"scale":[0.9999999403953552,1,0.9999999403953552],"translation":[10.878189086914062,35.25899887084961,-24.32880401611328]},{"name":"EndREar_076","rotation":[7.450581485102248e-9,1.4901161193847656e-8,-4.470348358154297e-8,1],"scale":[1,1,1.000000238418579],"translation":[31.375717163085938,0,0.0000152587890625]},{"children":[88],"name":"RShoulder_077","rotation":[0.003622607793658972,-0.08035022020339966,0.7053456902503967,0.7042855620384216],"scale":[1,1,1.0000001192092896],"translation":[12.472999572753906,34.25740432739258,-15.12600326538086]},{"children":[89],"name":"RArm_078","rotation":[0.2781391739845276,-0.5232784152030945,0.10708384215831757,0.7983428835868835],"scale":[1.0000001192092896,1.0000003576278687,1],"translation":[27.661914825439453,0.00003337860107421875,0.00003814697265625]},{"children":[90],"name":"RForeArm_079","rotation":[2.272574661787985e-8,-0.25265568494796753,5.9343205904838214e-9,0.9675562381744385],"scale":[0.9999999403953552,0.9999999403953552,1.000000238418579],"translation":[39.24740219116211,-0.00000762939453125,-0.000030517578125]},{"children":[91,92],"name":"RHand_080","rotation":[0.39986321330070496,-0.4462038278579712,-0.3406440019607544,0.7245503664016724],"scale":[0.9999998211860657,1,1.0000001192092896],"translation":[31.150901794433594,-0.0000152587890625,0.00002288818359375]},{"name":"EndRHand_081","rotation":[6.485097012157696e-22,2.1175826205712405e-22,-1.0929231478162826e-11,1],"scale":[0.9999998807907104,0.9999998807907104,0.9999998211860657],"translation":[29.065509796142578,-0.0000152587890625,9.5367431640625e-7]},{"children":[93],"name":"RFinger1_082","rotation":[6.485097012157696e-22,2.1175826205712405e-22,-1.0929231478162826e-11,1],"scale":[0.9999998807907104,0.9999998807907104,0.9999998211860657],"translation":[12.572807312011719,0.0000152587890625,-7.176328182220459]},{"name":"EndRFinger1_083","rotation":[-2.2737362123312344e-13,2.142432117738937e-22,-1.0929227141354136e-11,1],"scale":[1.000000238418579,1.000000238418579,1],"translation":[24.353687286376953,0.00002288818359375,-0.000002384185791015625]},{"children":[95],"name":"VriVis00_084"},{"name":"pm0003_00_dummySkin_085"},{"children":[97],"name":"VriVis01_086"},{"name":"pm0003_01_FlowerSkin_087"},{"name":"pm0003_00_BodySkin_088"},{"name":"pm0003_00_FlowerSkin_089"},{"name":"pm0003_00_LeafSkin_090"}],"samplers":[{"magFilter":9729,"minFilter":9987,"wrapS":10497,"wrapT":10497}],"scene":0,"scenes":[{"name":"Sketchfab_Scene","nodes":[0]}],"skins":[{"inverseBindMatrices":16,"joints":[4,10,11,12,13,14,15,16,17,18,19,20,21,22,23,24,25,26,27,28,29,30,31,32,33,34,35,36,37,38,39,40,41,42,43,44,45,46,47,48,49,50,51,52,53,54,55,56,57,58,59,60,61,62,63,64,65,66,67,68,69,70,71,72,73,74,75,76,77,78,79,80,81,82,83,84,85,86,87,88,89,90,91,92,93,94,95,96,97,98,99,100],"skeleton":4}],"textures":[{"sampler":0,"source":0},{"sampler":0,"source":1},{"sampler":0,"source":2},{"sampler":0,"source":3}]}